<?xml version="1.0" encoding="UTF-8"?>
<svg xmlns="http://www.w3.org/2000/svg" width="1800" height="1200" viewBox="0 0 1800 1200" role="img">
  <defs>
    <linearGradient id="backdrop" x1="0" y1="0" x2="0.25" y2="1">
      <stop offset="0" stop-color="#e9e7e1"/>
      <stop offset="1" stop-color="#d5d2c9"/>
    </linearGradient>
    <radialGradient id="vignette" cx="0.5" cy="0.46" r="0.75">
      <stop offset="0.62" stop-color="#191f2a" stop-opacity="0"/>
      <stop offset="1" stop-color="#191f2a" stop-opacity="0.14"/>
    </radialGradient>
    <filter id="furEdge" x="-20%" y="-20%" width="140%" height="140%">
      <feTurbulence type="fractalNoise" baseFrequency="0.012" numOctaves="4" seed="97" result="noise"/>
      <feDisplacementMap in="SourceGraphic" in2="noise" scale="55" xChannelSelector="R" yChannelSelector="G"/>
    </filter>
    <filter id="grain">
      <feTurbulence type="fractalNoise" baseFrequency="0.9" numOctaves="2" seed="108"/>
      <feColorMatrix type="matrix" values="0 0 0 0 0.5  0 0 0 0 0.5  0 0 0 0 0.5  0 0 0 0.05 0"/>
    </filter>
  </defs>

  <rect width="1800" height="1200" fill="url(#backdrop)"/>

  <ellipse cx="1080" cy="1230.6432" rx="650.2559999999999" ry="91.2" fill="#191f2a" opacity="0.10"/>

  <g filter="url(#furEdge)">
    <ellipse cx="1080" cy="744" rx="565.4399999999999" ry="528.9599999999999" fill="#8fa0cc"/>
    <ellipse cx="887.7504" cy="648.7872" rx="192.2496" ry="222.16319999999996" fill="#5f74b8" opacity="0.85"/>
    <ellipse cx="1080" cy="839.2128" rx="248.79359999999997" ry="275.0592" fill="#edf0f6"/>

    <ellipse cx="890.304" cy="143.5392" rx="182.4" ry="262.656" fill="#8fa0cc" transform="rotate(-16 890.304 143.5392)"/>
    <ellipse cx="1269.696" cy="143.5392" rx="182.4" ry="262.656" fill="#8fa0cc" transform="rotate(16 1269.696 143.5392)"/>
    <ellipse cx="897.6" cy="158.1312" rx="87.55199999999999" ry="131.328" fill="#5f74b8" transform="rotate(-16 897.6 158.1312)"/>
    <ellipse cx="1262.4" cy="158.1312" rx="87.55199999999999" ry="131.328" fill="#5f74b8" transform="rotate(16 1262.4 158.1312)"/>

    <circle cx="1080" cy="384.3072" r="364.8" fill="#8fa0cc"/>
    <ellipse cx="1080" cy="508.3392" rx="204.28800000000004" ry="167.80800000000002" fill="#edf0f6"/>
    <ellipse cx="1080" cy="428.08320000000003" rx="72.96000000000001" ry="51.07200000000001" fill="#5f74b8"/>
    <circle cx="941.376" cy="340.5312" r="31.008000000000003" fill="#20242b"/>
    <circle cx="1218.624" cy="340.5312" r="31.008000000000003" fill="#20242b"/>
  </g>

  <rect width="1800" height="1200" filter="url(#grain)"/>
  <rect width="1800" height="1200" fill="url(#vignette)"/>
</svg>
